REM DIRINDEX 1\2,1\3,1\4,1\5,1\6
REM DIRNAME "folder01","folder02","folder03","folder04","folder05","folder06"
TITLE ""
FILE "Disc6Track47.mp3" MP3
  TRACK 01 AUDIO
    TITLE "3:cjc161_11895"
    INDEX 01 00:00:00
  TRACK 02 AUDIO
    TITLE "4:cjc161_11896"
    INDEX 01 00:01:02
  TRACK 03 AUDIO
    TITLE "5:cjc161_11897"
    INDEX 01 00:03:30
  TRACK 04 AUDIO
    TITLE "6:cjc161_11898"
    INDEX 01 00:04:45
  TRACK 05 AUDIO
    TITLE "0:"
    INDEX 01 00:09:19
  TRACK 06 AUDIO
    TITLE "3:cjc161_11899"
    INDEX 01 00:09:48
  TRACK 07 AUDIO
    TITLE "4:cjc161_11900"
    INDEX 01 00:10:75
  TRACK 08 AUDIO
    TITLE "5:cjc161_11901"
    INDEX 01 00:12:08
  TRACK 09 AUDIO
    TITLE "0:"
    INDEX 01 00:13:36
  TRACK 10 AUDIO
    TITLE "3:cjc161_11902"
    INDEX 01 00:13:64
  TRACK 11 AUDIO
    TITLE "4:cjc161_11903"
    INDEX 01 00:15:08
  TRACK 12 AUDIO
    TITLE "5:cjc161_11904"
    INDEX 01 00:17:21
  TRACK 13 AUDIO
    TITLE "6:cjc161_11905"
    INDEX 01 00:18:40
  TRACK 14 AUDIO
    TITLE "0:"
    INDEX 01 00:22:57
  TRACK 15 AUDIO
    TITLE "3:cjc161_11906"
    INDEX 01 00:23:13
  TRACK 16 AUDIO
    TITLE "4:cjc161_11907"
    INDEX 01 00:24:42
  TRACK 17 AUDIO
    TITLE "5:cjc161_11908"
    INDEX 01 00:25:65
  TRACK 18 AUDIO
    TITLE "0:"
    INDEX 01 00:27:21
  TRACK 19 AUDIO
    TITLE "3:cjc161_11909"
    INDEX 01 00:27:50
  TRACK 20 AUDIO
    TITLE "4:cjc161_11910"
    INDEX 01 00:29:10
  TRACK 21 AUDIO
    TITLE "5:cjc161_11911"
    INDEX 01 00:33:22
  TRACK 22 AUDIO
    TITLE "6:cjc161_11912"
    INDEX 01 00:34:52
  TRACK 23 AUDIO
    TITLE "0:"
    INDEX 01 00:39:59
  TRACK 24 AUDIO
    TITLE "3:cjc161_11913"
    INDEX 01 00:40:06
  TRACK 25 AUDIO
    TITLE "4:cjc161_11914"
    INDEX 01 00:41:33
  TRACK 26 AUDIO
    TITLE "5:cjc161_11915"
    INDEX 01 00:43:41
  TRACK 27 AUDIO
    TITLE "6:cjc161_11916"
    INDEX 01 00:44:66
  TRACK 28 AUDIO
    TITLE "0:"
    INDEX 01 00:46:55
  TRACK 29 AUDIO
    TITLE "3:cjc161_11917"
    INDEX 01 00:47:12
  TRACK 30 AUDIO
    TITLE "4:cjc161_11918"
    INDEX 01 00:48:33
  TRACK 31 AUDIO
    TITLE "5:cjc161_11919"
    INDEX 01 00:51:10
  TRACK 32 AUDIO
    TITLE "6:cjc161_11920"
    INDEX 01 00:52:33
  TRACK 33 AUDIO
    TITLE "0:"
    INDEX 01 00:54:26
  TRACK 34 AUDIO
    TITLE "3:cjc161_11921"
    INDEX 01 00:54:57
  TRACK 35 AUDIO
    TITLE "4:cjc161_11922"
    INDEX 01 00:56:03
  TRACK 36 AUDIO
    TITLE "5:cjc161_11923"
    INDEX 01 00:59:07
  TRACK 37 AUDIO
    TITLE "6:cjc161_11924"
    INDEX 01 01:00:28
  TRACK 38 AUDIO
    TITLE "0:"
    INDEX 01 01:05:45
  TRACK 39 AUDIO
    TITLE "3:cjc161_11925"
    INDEX 01 01:05:74
  TRACK 40 AUDIO
    TITLE "4:cjc161_11926"
    INDEX 01 01:07:32
  TRACK 41 AUDIO
    TITLE "5:cjc161_11927"
    INDEX 01 01:09:33
  TRACK 42 AUDIO
    TITLE "0:"
    INDEX 01 01:10:70
  TRACK 43 AUDIO
    TITLE "3:cjc161_11928"
    INDEX 01 01:11:34
  TRACK 44 AUDIO
    TITLE "4:cjc161_11929"
    INDEX 01 01:13:64
  TRACK 45 AUDIO
    TITLE "5:cjc161_11930"
    INDEX 01 01:19:67
  TRACK 46 AUDIO
    TITLE "6:cjc161_11931"
    INDEX 01 01:22:22
  TRACK 47 AUDIO
    TITLE "0:"
    INDEX 01 01:26:47
  TRACK 48 AUDIO
    TITLE "3:cjc161_11932"
    INDEX 01 01:27:04
  TRACK 49 AUDIO
    TITLE "4:cjc161_11933"
    INDEX 01 01:28:30
  TRACK 50 AUDIO
    TITLE "5:cjc161_11934"
    INDEX 01 01:29:55
  TRACK 51 AUDIO
    TITLE "6:cjc161_11935"
    INDEX 01 01:31:07
  TRACK 52 AUDIO
    TITLE "0:"
    INDEX 01 01:37:55
  TRACK 53 AUDIO
    TITLE "3:cjc161_11936"
    INDEX 01 01:38:11
  TRACK 54 AUDIO
    TITLE "4:cjc161_11937"
    INDEX 01 01:39:38
  TRACK 55 AUDIO
    TITLE "5:cjc161_11938"
    INDEX 01 01:41:27
  TRACK 56 AUDIO
    TITLE "6:cjc161_11939"
    INDEX 01 01:42:56
  TRACK 57 AUDIO
    TITLE "0:"
    INDEX 01 01:45:74
  TRACK 58 AUDIO
    TITLE "3:cjc161_11940"
    INDEX 01 01:46:32
  TRACK 59 AUDIO
    TITLE "4:cjc161_11941"
    INDEX 01 01:47:39
  TRACK 60 AUDIO
    TITLE "5:cjc161_11942"
    INDEX 01 01:49:40
  TRACK 61 AUDIO
    TITLE "6:cjc161_11943"
    INDEX 01 01:50:46
  TRACK 62 AUDIO
    TITLE "0:"
    INDEX 01 01:52:49
  TRACK 63 AUDIO
    TITLE "3:cjc161_11944"
    INDEX 01 01:53:03
  TRACK 64 AUDIO
    TITLE "4:cjc161_11945"
    INDEX 01 01:54:34
  TRACK 65 AUDIO
    TITLE "5:cjc161_11946"
    INDEX 01 01:56:58
  TRACK 66 AUDIO
    TITLE "6:cjc161_11947"
    INDEX 01 01:58:10
  TRACK 67 AUDIO
    TITLE "0:"
    INDEX 01 02:04:63
